<svg xmlns="http://www.w3.org/2000/svg" xmlns:osb="http://www.openswatchbook.org/uri/2009/osb" xmlns:svg="http://www.w3.org/2000/svg" id="svg6948" width="81.067" height="55.467" version="1.1" viewBox="0 0 76 52"><defs id="defs6950"><linearGradient id="linearGradient9750" osb:paint="solid"><stop id="stop9752" offset="0" stop-color="#f1680d" stop-opacity="1"/></linearGradient><linearGradient id="linearGradient9634" osb:paint="solid"><stop id="stop9746" offset="0" stop-color="red" stop-opacity="1"/></linearGradient><linearGradient id="linearGradient9734" osb:paint="gradient"><stop id="stop9736" offset="0" stop-color="red" stop-opacity="1"/><stop id="stop9738" offset="1" stop-color="red" stop-opacity="0"/></linearGradient><linearGradient id="linearGradient9648" osb:paint="solid"><stop id="stop9650" offset="0" stop-color="#000" stop-opacity="1"/></linearGradient><linearGradient id="linearGradient9642"><stop id="stop9644" offset="0" stop-color="red" stop-opacity="1"/></linearGradient><linearGradient id="linearGradient9748"><stop id="stop9636" offset="0" stop-color="red" stop-opacity="1"/></linearGradient><linearGradient id="linearGradient8192" osb:paint="solid"><stop id="stop8194" offset="0" stop-color="red" stop-opacity="1"/></linearGradient></defs><metadata id="metadata6953"/><g id="layer1" transform="translate(-337,-506.3622)"><path id="Fill-2-Copy_2_" fill="none" fill-opacity="1" stroke="#d6d6d6" stroke-dasharray="none" stroke-miterlimit="4" stroke-opacity="1" stroke-width="4" d="m 391,536.3622 20,16 0,-40 -20,16 0,8 z m -52,-20 c 0,-4.4 3.6,-8 8,-8 l 32,0 c 4.4,0 8,3.6 8,8 l 0,32 c 0,4.4 -3.6,8 -8,8 l -32,0 c -4.4,0 -8,-3.6 -8,-8 l 0,-32 z" class="st6"/><rect id="rect4369" width="77.313" height="6.758" x="11.879" y="652.399" fill="#ef1010" fill-opacity="1" stroke="#000" stroke-dasharray="none" stroke-linecap="round" stroke-miterlimit="4" stroke-opacity="1" stroke-width="2.013" opacity="1" rx="2.592" ry="2.327" transform="matrix(0.70195774,-0.7122186,0.49869699,0.86677639,0,0)"/></g></svg>